<svg width="24" height="24" viewBox="0 0 24 24" fill="none" xmlns="http://www.w3.org/2000/svg">
<g clip-path="url(#clip0)">
<path d="M23.365 9.39294C23.2313 9.39294 23.0957 9.43212 22.9619 9.50933L19.0317 11.7784V9.56098C19.0317 9.10869 18.6637 8.74067 18.2114 8.74067H5.3493C4.94332 8.27089 4.34383 7.97272 3.67568 7.97272C2.45585 7.97272 1.46341 8.96515 1.46341 10.185V13.0234H0.647783C0.46558 13.0234 0.290923 13.1007 0.168814 13.2354C0.0463764 13.3702 -0.0137174 13.5515 0.0038607 13.7325C0.0916108 14.6399 0.512736 15.4802 1.18961 16.0986C1.78399 16.6415 2.53146 16.9715 3.32416 17.0471V18.6647H1.19088C0.73858 18.6647 0.370564 19.0326 0.370564 19.485V20.1424C0.370564 20.5947 0.73858 20.9627 1.19088 20.9627H3.61019C3.80435 20.9627 3.96175 20.8053 3.96175 20.6111C3.96175 20.417 3.80435 20.2595 3.61019 20.2595H1.19088C1.12736 20.2595 1.07369 20.2059 1.07369 20.1424V19.485C1.07369 19.4215 1.12736 19.3678 1.19088 19.3678H6.16052C6.22404 19.3678 6.27771 19.4215 6.27771 19.485V20.1424C6.27771 20.2059 6.22404 20.2595 6.16052 20.2595H5.25082C5.05666 20.2595 4.89925 20.417 4.89925 20.6111C4.89925 20.8053 5.05666 20.9627 5.25082 20.9627H6.16047C6.5951 20.9627 6.95088 20.6226 6.97812 20.1948H18.2114C18.6637 20.1948 19.0317 19.8267 19.0317 19.3744V17.157L22.9619 19.4262C23.0957 19.5034 23.2313 19.5425 23.3649 19.5425H23.365C23.5564 19.5425 23.7266 19.4618 23.8443 19.3153C23.9467 19.1878 24.0009 19.0187 24.0009 18.8263V10.1091C24.0008 9.68745 23.7394 9.39294 23.365 9.39294ZM2.16649 10.185C2.16649 9.3529 2.8435 8.67589 3.67563 8.67589C4.5078 8.67589 5.18482 9.3529 5.18482 10.185V12.1669H2.16649V10.185ZM2.16649 12.87H5.18486V13.375C5.18486 14.2071 4.50785 14.8842 3.67568 14.8842C2.84355 14.8842 2.16653 14.2071 2.16653 13.375V12.87H2.16649ZM1.6638 15.5795C1.13106 15.0928 0.794033 14.4369 0.710314 13.7265H1.49163C1.66061 14.7799 2.57547 15.5873 3.67568 15.5873C4.77588 15.5873 5.69079 14.7799 5.85977 13.7265H6.64108C6.55741 14.4368 6.22033 15.0928 5.6876 15.5795C5.13588 16.0834 4.42136 16.3609 3.67568 16.3609C2.92999 16.3609 2.21547 16.0834 1.6638 15.5795ZM18.3286 19.3745C18.3286 19.438 18.2749 19.4917 18.2114 19.4917H6.98079V19.485C6.98079 19.0326 6.61277 18.6647 6.16047 18.6647H4.02719V17.0471C4.8199 16.9715 5.56741 16.6415 6.16179 16.0986C6.83862 15.4803 7.25974 14.64 7.34749 13.7327C7.36512 13.5515 7.30498 13.3703 7.18272 13.2357C7.06043 13.1007 6.88582 13.0234 6.70357 13.0234H5.88794V10.185C5.88794 9.92511 5.84252 9.67569 5.75983 9.4438H18.2114C18.2749 9.4438 18.3286 9.49747 18.3286 9.56098V19.3745ZM23.2977 18.8082L21.6308 17.8458V16.3594C21.6308 16.1652 21.4734 16.0078 21.2793 16.0078C21.0851 16.0078 20.9277 16.1652 20.9277 16.3594V17.4399L19.0317 16.3452V12.5903L20.9277 11.4957V14.7187C20.9277 14.9129 21.0851 15.0703 21.2793 15.0703C21.4734 15.0703 21.6308 14.9129 21.6308 14.7187V11.0897L23.2977 10.1273V18.8082Z" fill="#A2A2A2"/>
<path d="M14.0754 13.93L9.78262 11.4775C9.6659 11.4108 9.54675 11.377 9.42858 11.377C9.09314 11.377 8.84967 11.647 8.84967 12.019V16.9165C8.84967 17.2885 9.09314 17.5585 9.42858 17.5585C9.54675 17.5585 9.66591 17.5247 9.78267 17.458L14.0754 15.0055C14.2947 14.8803 14.4205 14.6842 14.4205 14.4677C14.4205 14.2513 14.2947 14.0552 14.0754 13.93ZM9.55275 16.7796V12.1559L13.5993 14.4677L9.55275 16.7796Z" fill="#A2A2A2"/>
<path d="M4.11786 9.56775H3.23178C3.03762 9.56775 2.88022 9.72516 2.88022 9.91931C2.88022 10.1135 3.03762 10.2709 3.23178 10.2709H4.11781C4.31197 10.2709 4.46937 10.1135 4.46937 9.91931C4.46942 9.72516 4.31202 9.56775 4.11786 9.56775Z" fill="#A2A2A2"/>
<path d="M4.11786 10.8672H3.23178C3.03762 10.8672 2.88022 11.0247 2.88022 11.2188C2.88022 11.413 3.03762 11.5704 3.23178 11.5704H4.11781C4.31197 11.5704 4.46937 11.413 4.46937 11.2188C4.46942 11.0247 4.31202 10.8672 4.11786 10.8672Z" fill="#A2A2A2"/>
<path d="M12 7.21381C11.6079 7.21381 11.2301 7.38007 10.9634 7.66999C10.8319 7.81287 10.8411 8.03529 10.984 8.16678C11.0516 8.22893 11.1369 8.25959 11.222 8.25959C11.3168 8.25959 11.4114 8.22138 11.4808 8.14606C11.6167 7.99831 11.8011 7.91693 12 7.91693C12.1988 7.91693 12.3832 7.99831 12.5192 8.1461C12.6506 8.28898 12.8731 8.29821 13.0159 8.16673C13.1588 8.03524 13.168 7.81287 13.0366 7.66999C12.7698 7.38007 12.392 7.21381 12 7.21381Z" fill="#A2A2A2"/>
<path d="M13.5438 7.2039C13.6131 7.27923 13.7077 7.31738 13.8026 7.31738C13.8876 7.31738 13.973 7.28668 14.0406 7.22452C14.1834 7.09304 14.1927 6.87062 14.0611 6.72774C13.5312 6.15189 12.7799 5.82166 12 5.82166C11.2201 5.82166 10.4688 6.15189 9.93886 6.72774C9.80738 6.87062 9.81661 7.09299 9.95944 7.22452C10.1023 7.35605 10.3247 7.34677 10.4562 7.20395C10.8534 6.77232 11.4161 6.52482 12 6.52482C12.5839 6.52473 13.1466 6.77228 13.5438 7.2039Z" fill="#A2A2A2"/>
<path d="M12.4261 5.1584C12.619 5.18216 12.7941 5.04487 12.8177 4.85212C12.8413 4.65941 12.7042 4.48405 12.5114 4.46052C12.343 4.4399 12.1709 4.42944 12 4.42944C10.8328 4.42944 9.70818 4.92384 8.91477 5.78587C8.78328 5.9287 8.79247 6.15112 8.93535 6.28261C9.00289 6.34481 9.08825 6.37551 9.17333 6.37551C9.26821 6.37551 9.3628 6.33736 9.43208 6.26203C10.0928 5.54423 11.0288 5.13257 12 5.13257C12.1424 5.13257 12.2858 5.14124 12.4261 5.1584Z" fill="#A2A2A2"/>
<path d="M14.5679 6.26206C14.6372 6.33739 14.7317 6.37554 14.8267 6.37554C14.9117 6.37554 14.9971 6.34484 15.0646 6.28268C15.2075 6.1512 15.2168 5.92878 15.0853 5.7859C14.8247 5.50283 14.5271 5.25678 14.2006 5.05475C14.0354 4.95256 13.8188 5.00356 13.7166 5.16866C13.6145 5.33375 13.6655 5.55045 13.8306 5.65264C14.1026 5.82097 14.3506 6.026 14.5679 6.26206Z" fill="#A2A2A2"/>
<path d="M8.14894 5.43345C8.24382 5.43345 8.33841 5.39525 8.40769 5.31996C9.3316 4.31614 10.641 3.74042 12 3.74042C13.359 3.74042 14.6684 4.31614 15.5923 5.31996C15.7238 5.46284 15.9462 5.47207 16.0891 5.34054C16.2319 5.20906 16.2411 4.98664 16.1096 4.84381C15.053 3.69575 13.555 3.03729 12 3.03729C10.4449 3.03729 8.94699 3.69575 7.89033 4.84381C7.75885 4.98668 7.76808 5.20906 7.91096 5.34059C7.9785 5.4027 8.06382 5.43345 8.14894 5.43345Z" fill="#A2A2A2"/>
</g>
<defs>
<clipPath id="clip0">
<rect width="24" height="24" fill="white"/>
</clipPath>
</defs>
</svg>
