<svg width="12" height="12" viewBox="0 0 12 12" fill="none" xmlns="http://www.w3.org/2000/svg">
<path d="M6 0C2.69147 0 0 2.69147 0 6C0 9.30853 2.69147 12 6 12C9.30853 12 12 9.30853 12 6C12 2.69147 9.30853 0 6 0Z" fill="#949494"/>
<path d="M9.04102 4.72852L5.79099 7.97846C5.69348 8.07597 5.56549 8.12504 5.4375 8.12504C5.30951 8.12504 5.18152 8.07597 5.08401 7.97846L3.45905 6.35349C3.26349 6.15803 3.26349 5.84199 3.45905 5.64652C3.65451 5.45097 3.97046 5.45097 4.16602 5.64652L5.4375 6.91801L8.33405 4.02155C8.52951 3.826 8.84546 3.826 9.04102 4.02155C9.23648 4.21702 9.23648 4.53297 9.04102 4.72852Z" fill="#282828"/>
</svg>
