<svg width="18" height="24" viewBox="0 0 18 24" fill="none" xmlns="http://www.w3.org/2000/svg">
<path d="M17.9487 13.9987C17.6738 10.6423 16.0073 8.539 14.5371 6.68295C13.1758 4.96465 12 3.48081 12 1.29192C12 1.1161 11.895 0.955403 11.7285 0.874833C11.5615 0.79378 11.3608 0.807054 11.209 0.910525C9.00098 2.39208 7.1587 4.88913 6.51516 7.27168C6.06839 8.93042 6.00928 10.7952 6.00098 12.0268C3.96192 11.6184 3.50002 8.75829 3.49514 8.72713C3.47217 8.57878 3.37552 8.44968 3.23489 8.37918C3.09281 8.3096 2.9258 8.30454 2.78175 8.3714C2.67483 8.41993 0.157219 9.61947 0.0107342 14.4089C0.000468576 14.5682 0 14.728 0 14.8878C0 19.5408 4.03758 23.3266 9 23.3266C9.00684 23.3271 9.01416 23.328 9.02002 23.3266C9.02198 23.3266 9.02391 23.3266 9.02634 23.3266C13.9766 23.3133 18 19.5326 18 14.8878C18 14.6538 17.9487 13.9987 17.9487 13.9987ZM9 22.389C7.34569 22.389 6 21.0448 6 19.3925C6 19.3362 5.99953 19.2794 6.00389 19.2098C6.02391 18.513 6.16505 18.0373 6.31983 17.7209C6.60989 18.3051 7.12842 18.8422 7.97072 18.8422C8.24709 18.8422 8.47073 18.6324 8.47073 18.3733C8.47073 17.7058 8.48541 16.9357 8.66264 16.2407C8.82037 15.6245 9.1973 14.9688 9.67486 14.4432C9.88725 15.1254 10.3013 15.6776 10.7056 16.2164C11.2843 16.9874 11.8824 17.7845 11.9874 19.1439C11.9937 19.2244 12.0001 19.3055 12.0001 19.3925C12 21.0448 10.6543 22.389 9 22.389Z" fill="#A2A2A2"/>
</svg>
