<svg width="24" height="24" viewBox="0 0 24 24" fill="none" xmlns="http://www.w3.org/2000/svg">
<path d="M24 12C24 14.3687 23.2969 16.6723 21.9668 18.6617C21.6791 19.0922 21.0969 19.2078 20.6664 18.9201C20.2359 18.6323 20.1204 18.05 20.408 17.6197C21.5314 15.9395 22.125 13.9964 22.125 12C22.125 6.41711 17.5829 1.875 12 1.875C6.41711 1.875 1.875 6.41711 1.875 12C1.875 17.5829 6.41711 22.125 12 22.125C13.8517 22.125 15.663 21.6207 17.2377 20.6669C17.6805 20.3987 18.2571 20.5402 18.5253 20.9832C18.7936 21.4259 18.652 22.0023 18.2091 22.2706C16.3414 23.402 14.1943 24 12 24C8.79474 24 5.78119 22.7518 3.51471 20.4853C1.24823 18.2188 0 15.2053 0 12C0 8.79474 1.24823 5.78119 3.51471 3.51471C5.78119 1.24823 8.79474 0 12 0C15.2053 0 18.2188 1.24823 20.4853 3.51471C22.7518 5.78119 24 8.79474 24 12ZM12.0004 17.8125C11.4825 17.8125 11.0629 18.2322 11.0629 18.75C11.0629 19.2678 11.4825 19.6875 12.0004 19.6875C12.518 19.6875 12.9379 19.2678 12.9379 18.75C12.9379 18.2322 12.518 17.8125 12.0004 17.8125ZM13.9686 13.8497C15.8205 13.0591 17.0169 11.2473 17.0164 9.23364C17.0164 9.2179 17.016 9.20215 17.0153 9.1864C16.9896 6.44293 14.7497 4.21875 12.0004 4.21875C9.23492 4.21875 6.98511 6.46857 6.98511 9.23383C6.98511 9.75165 7.40479 10.1713 7.92261 10.1713C8.44043 10.1713 8.86011 9.75165 8.86011 9.23383C8.86011 7.50238 10.2687 6.09375 12.0004 6.09375C13.7318 6.09375 15.1404 7.50238 15.1404 9.23383C15.1404 9.24664 15.1406 9.25909 15.1412 9.27173C15.1267 10.5178 14.3807 11.6351 13.2323 12.1254C11.9346 12.6793 11.0629 14.0229 11.0629 15.4688C11.0629 15.9866 11.4825 16.4062 12.0004 16.4062C12.518 16.4062 12.9379 15.9866 12.9379 15.4688C12.9379 14.7636 13.3521 14.113 13.9686 13.8497Z" fill="#A2A2A2"/>
</svg>
