<svg width="18" height="24" viewBox="0 0 18 24" fill="none" xmlns="http://www.w3.org/2000/svg">
<path d="M17.5795 8.5795C17.5795 3.84879 13.7307 0 9.00003 0C4.26925 0 0.420532 3.84879 0.420532 8.5795C0.420532 11.3402 1.80524 15.152 4.12611 16.8094C4.16547 17.0043 4.21501 17.3578 4.24968 17.6068C4.39801 18.6617 4.44235 18.9798 4.77066 19.166C5.77377 19.7349 8.47941 19.7787 9.28493 19.7787C10.3208 19.7787 12.1739 19.7197 12.9425 19.321C13.2899 19.1412 13.3374 18.8217 13.4955 17.761C13.5321 17.52 13.5839 17.1707 13.6249 16.9746C16.1022 15.3367 17.5795 11.4365 17.5795 8.5795ZM12.3369 17.6016C12.3034 17.8263 12.2554 18.1474 12.2147 18.3526C11.8167 18.4676 10.9804 18.5834 9.68784 18.6047L9.68704 18.4828C9.68784 18.2931 9.68784 18.103 9.68553 17.9177C9.69383 16.0127 9.83856 13.8407 11.445 12.1632C11.6384 11.9609 11.6894 11.6907 11.5824 11.4396C11.469 11.1736 11.2108 10.9949 10.94 10.9949C10.7663 10.9949 10.6052 11.0675 10.4739 11.2041C9.83213 11.8749 9.34805 12.6317 9.00531 13.5068C8.6614 12.6317 8.17798 11.8737 7.53603 11.2041C7.40503 11.0671 7.24391 10.9949 7.07044 10.9949C6.79933 10.9949 6.54072 11.1736 6.42756 11.4396C6.32038 11.6907 6.37144 11.9613 6.56527 12.1632C8.17205 13.8411 8.31562 16.0134 8.32414 17.9153C8.32263 18.1034 8.32263 18.293 8.32342 18.4804L8.32227 18.5898C7.09615 18.5414 6.03534 18.4027 5.52996 18.2261C5.48937 18.017 5.44221 17.6796 5.40906 17.4438C5.26838 16.4392 5.22534 16.136 4.93243 15.9434C2.86757 14.5846 1.59039 11.0629 1.59039 8.5795C1.59039 4.49369 4.91415 1.16993 9.00003 1.16993C13.0856 1.16993 16.4096 4.49369 16.4096 8.5795C16.4096 11.146 15.0474 14.7445 12.8465 16.0835C12.5349 16.2725 12.4896 16.5775 12.3369 17.6016Z" fill="#A2A2A2"/>
<path d="M9.00003 24L9.585 23.9935V23.9642C13.2909 23.6439 13.4825 20.94 13.484 20.9118L13.535 19.9715L12.6694 20.3424C11.7855 20.7213 9.71564 20.8276 9.00689 20.8372C8.24802 20.8284 6.08603 20.7218 5.20042 20.3424L4.33517 19.9715L4.3858 20.9118C4.38732 20.94 4.57848 23.6439 8.28485 23.9642V24H9.00003ZM5.96362 21.7496C7.25214 21.9781 8.77384 22.0037 9.00768 22.0064C9.21943 22.0037 10.6548 21.9781 11.902 21.7543C11.4853 22.2604 10.6521 22.7939 8.98992 22.8237L8.93532 22.8245L8.88022 22.8237C7.21155 22.7939 6.37851 22.2562 5.96362 21.7496Z" fill="#A2A2A2"/>
</svg>
