<svg width="24" height="24" viewBox="0 0 24 24" fill="none" xmlns="http://www.w3.org/2000/svg">
<g clip-path="url(#clip0)">
<path d="M9.20036 16.3992H7.60059V14.7995C7.60059 14.5786 7.42152 14.3995 7.20065 14.3995H5.60088C5.38002 14.3995 5.20094 14.5786 5.20094 14.7995V16.3992H3.60117C3.38031 16.3992 3.20123 16.5783 3.20123 16.7992V18.399C3.20123 18.6198 3.38031 18.7989 3.60117 18.7989H5.20094V20.3987C5.20094 20.6195 5.38002 20.7986 5.60088 20.7986H7.20065C7.42152 20.7986 7.60059 20.6195 7.60059 20.3987V18.7989H9.20036C9.42123 18.7989 9.6003 18.6198 9.6003 18.399V16.7992C9.6003 16.5783 9.42123 16.3992 9.20036 16.3992ZM8.80042 17.999H7.20065C6.97978 17.999 6.80071 18.1781 6.80071 18.399V19.9987H6.00082V18.399C6.00082 18.1781 5.82175 17.999 5.60088 17.999H4.00112V17.1991H5.60088C5.82175 17.1991 6.00082 17.0201 6.00082 16.7992V15.1994H6.80071V16.7992C6.80071 17.0201 6.97978 17.1991 7.20065 17.1991H8.80042V17.999Z" fill="#A2A2A2"/>
<path d="M23.9584 16.8683C23.6517 14.1123 21.0633 11.5339 18.3049 11.2399C18.0706 11.2141 17.8351 11.2008 17.5994 11.2H13.2V9.60019H12.4001V8.8003C12.4001 7.91678 11.6839 7.20054 10.8004 7.20054H8.80067C8.35888 7.20054 8.00078 6.84244 8.00078 6.40065C8.00078 5.95887 8.35888 5.60077 8.80067 5.60077H15.1997C16.0832 5.60077 16.7995 4.88452 16.7995 4.001C16.7995 3.11748 16.0832 2.40124 15.1997 2.40124H13.2C12.7582 2.40124 12.4001 2.04314 12.4001 1.60135V0.00158691H11.6003V1.60135C11.6003 2.48487 12.3165 3.20112 13.2 3.20112H15.1997C15.6415 3.20112 15.9996 3.55922 15.9996 4.001C15.9996 4.44279 15.6415 4.80089 15.1997 4.80089H8.80067C7.91715 4.80089 7.2009 5.51713 7.2009 6.40065C7.2009 7.28417 7.91715 8.00042 8.80067 8.00042H10.8004C11.2422 8.00042 11.6003 8.35852 11.6003 8.8003V9.60019H10.8004V11.2H6.40102C6.16505 11.2005 5.92924 11.2139 5.69472 11.2399C2.93513 11.5359 0.34831 14.1143 0.042355 16.8703C-0.359436 20.3815 2.16119 23.5537 5.67243 23.9554C7.10222 24.1191 8.5454 23.7959 9.76892 23.0383C10.2957 22.6934 10.8978 22.4807 11.5243 22.418C11.8337 22.3935 12.1445 22.3924 12.4541 22.4148C13.0905 22.4763 13.7023 22.6915 14.2371 23.0419C17.2434 24.8998 21.1866 23.9689 23.0446 20.9625C23.8006 19.7393 24.1225 18.297 23.9584 16.8683ZM11.6003 10.4001H12.4001V11.2H11.6003V10.4001ZM21.7728 21.3321C19.9646 23.3546 16.9661 23.7886 14.6586 22.3619C14.0142 21.9423 13.2771 21.6866 12.5113 21.6168C12.3425 21.6046 12.1722 21.5984 12.0002 21.5984C11.8182 21.5984 11.6402 21.606 11.4611 21.62C10.7069 21.6923 9.98144 21.9455 9.34619 22.3583C6.71647 23.9853 3.26573 23.1726 1.63867 20.5428C0.976318 19.4723 0.694059 18.2098 0.837438 16.9591C1.1006 14.5907 3.40986 12.2902 5.78071 12.0354C5.98668 12.0124 6.19375 12.0005 6.40102 11.9998H17.5994C17.8066 12 18.0137 12.011 18.2197 12.033C20.5901 12.2878 22.899 14.5883 23.163 16.9567C23.3515 18.5473 22.8449 20.142 21.7728 21.3321Z" fill="#A2A2A2"/>
<path d="M17.5991 13.5997C16.7156 13.5997 15.9994 14.3159 15.9994 15.1994C15.9994 16.083 16.7156 16.7992 17.5991 16.7992C18.4826 16.7992 19.1989 16.083 19.1989 15.1994C19.1989 14.3159 18.4826 13.5997 17.5991 13.5997ZM17.5991 15.9993C17.1573 15.9993 16.7992 15.6412 16.7992 15.1994C16.7992 14.7577 17.1573 14.3996 17.5991 14.3996C18.0409 14.3996 18.399 14.7577 18.399 15.1994C18.399 15.6412 18.0409 15.9993 17.5991 15.9993Z" fill="#A2A2A2"/>
<path d="M17.5991 18.3989C16.7156 18.3989 15.9994 19.1152 15.9994 19.9987C15.9994 20.8822 16.7156 21.5985 17.5991 21.5985C18.4826 21.5985 19.1989 20.8822 19.1989 19.9987C19.1989 19.1152 18.4826 18.3989 17.5991 18.3989ZM17.5991 20.7986C17.1573 20.7986 16.7992 20.4405 16.7992 19.9987C16.7992 19.5569 17.1573 19.1988 17.5991 19.1988C18.0409 19.1988 18.399 19.5569 18.399 19.9987C18.399 20.4405 18.0409 20.7986 17.5991 20.7986Z" fill="#A2A2A2"/>
<path d="M14.7995 15.9993C13.916 15.9993 13.1998 16.7155 13.1998 17.599C13.1998 18.4826 13.916 19.1988 14.7995 19.1988C15.6831 19.1988 16.3993 18.4826 16.3993 17.599C16.3993 16.7155 15.6831 15.9993 14.7995 15.9993ZM14.7995 18.3989C14.3577 18.3989 13.9997 18.0408 13.9997 17.599C13.9997 17.1572 14.3577 16.7992 14.7995 16.7992C15.2413 16.7992 15.5994 17.1572 15.5994 17.599C15.5994 18.0408 15.2413 18.3989 14.7995 18.3989Z" fill="#A2A2A2"/>
<path d="M20.3987 15.9993C19.5152 15.9993 18.799 16.7155 18.799 17.599C18.799 18.4826 19.5152 19.1988 20.3987 19.1988C21.2822 19.1988 21.9985 18.4826 21.9985 17.599C21.9985 16.7155 21.2822 15.9993 20.3987 15.9993ZM20.3987 18.3989C19.9569 18.3989 19.5988 18.0408 19.5988 17.599C19.5988 17.1572 19.9569 16.7992 20.3987 16.7992C20.8405 16.7992 21.1986 17.1572 21.1986 17.599C21.1986 18.0408 20.8405 18.3989 20.3987 18.3989Z" fill="#A2A2A2"/>
</g>
<defs>
<clipPath id="clip0">
<rect width="24" height="24" fill="white"/>
</clipPath>
</defs>
</svg>
