<svg width="22" height="24" viewBox="0 0 22 24" fill="none" xmlns="http://www.w3.org/2000/svg">
<path d="M0 0V24H21.3322V0H0ZM2.94731 22.5938H1.40625V21.0968H2.94736V22.5938H2.94731ZM2.94731 19.6905H1.40625V18.2841H2.94736V19.6905H2.94731ZM2.94731 16.8779H1.40625V15.4714H2.94736V16.8779H2.94731ZM2.94731 14.0652H1.40625V12.6587H2.94736V14.0652H2.94731ZM2.94731 11.2525H1.40625V9.84605H2.94736V11.2525H2.94731ZM2.94731 8.43975H1.40625V7.03336H2.94736V8.43975H2.94731ZM2.94731 5.62711H1.40625V4.22072H2.94736V5.62711H2.94731ZM2.94731 2.81447H1.40625V1.40625H2.94736V2.81447H2.94731ZM16.9785 22.5938H4.35356V12.6587H16.9785V22.5938H16.9785ZM16.9785 11.2525H4.35356V1.40625H16.9785V11.2525H16.9785ZM19.9259 22.5938H18.3848V21.0968H19.9259V22.5938ZM19.9259 19.6905H18.3848V18.2841H19.9259V19.6905ZM19.9259 16.8779H18.3848V15.4714H19.9259V16.8779ZM19.9259 14.0652H18.3848V12.6587H19.9259V14.0652ZM19.9259 11.2525H18.3848V9.84605H19.9259V11.2525ZM19.9259 8.4398H18.3848V7.03341H19.9259V8.4398ZM19.9259 5.62716H18.3848V5.62711V4.22072H19.9259V5.62716ZM19.9259 2.81447H18.3848V1.40625H19.9259V2.81447Z" fill="white"/>
</svg>
