<svg width="24" height="24" viewBox="0 0 24 24" fill="none" xmlns="http://www.w3.org/2000/svg">
<path d="M9.84616 17.6L13.8769 15.2308L9.84616 12.8616V17.6Z" fill="#FAFAFA"/>
<path d="M21.2308 6.46159H2.76921C1.23978 6.46159 0 7.70143 0 9.2308V20.9231C0 22.4526 1.23984 23.6923 2.76921 23.6923H21.2308C22.7602 23.6923 24 22.4525 24 20.9231V9.2308C24 7.70137 22.7602 6.46159 21.2308 6.46159ZM15.5851 15.4919C15.5285 15.6053 15.4365 15.6973 15.3231 15.7539L9.44617 19.2001C9.35582 19.2624 9.24817 19.2947 9.1385 19.2924L8.86158 19.2001C8.68785 19.0858 8.59273 18.8837 8.61541 18.677V11.7846C8.59273 11.5779 8.68779 11.3758 8.86158 11.2615C9.03827 11.1424 9.26949 11.1424 9.44623 11.2615L15.3232 14.7077C15.612 14.8519 15.7292 15.203 15.5851 15.4919Z" fill="#FAFAFA"/>
<path d="M3.16925 4.61543H20.8616C21.2014 4.61543 21.4769 4.33992 21.4769 4.00004C21.4769 3.66016 21.2014 3.38465 20.8616 3.38465H3.16925C2.82937 3.38465 2.55386 3.66016 2.55386 4.00004C2.55386 4.33992 2.82937 4.61543 3.16925 4.61543Z" fill="#FAFAFA"/>
<path d="M5.78461 1.23077H18.2154C18.5553 1.23077 18.8308 0.955265 18.8308 0.615386C18.8308 0.275507 18.5553 0 18.2154 0H5.78461C5.44473 0 5.16922 0.275507 5.16922 0.615386C5.16922 0.955265 5.44479 1.23077 5.78461 1.23077Z" fill="#FAFAFA"/>
</svg>
