<svg width="24" height="24" viewBox="0 0 24 24" fill="none" xmlns="http://www.w3.org/2000/svg">
<path d="M9.84616 17.3773L13.8769 15.1268L9.84616 12.8764V17.3773Z" fill="#A2A2A2"/>
<path d="M21.2308 6.79709H2.76921C1.23978 6.79709 0 7.9748 0 9.42753V20.5339C0 21.9867 1.23984 23.1644 2.76921 23.1644H21.2308C22.7602 23.1644 24 21.9867 24 20.5339V9.42753C24 7.97474 22.7602 6.79709 21.2308 6.79709ZM15.5851 15.3749C15.5285 15.4826 15.4365 15.57 15.3231 15.6238L9.44617 18.8972C9.35582 18.9564 9.24817 18.9871 9.1385 18.9849L8.86158 18.8972C8.68785 18.7886 8.59273 18.5968 8.61541 18.4003V11.8534C8.59273 11.657 8.68779 11.4651 8.86158 11.3565C9.03827 11.2434 9.26949 11.2434 9.44623 11.3565L15.3232 14.6299C15.612 14.7669 15.7292 15.1004 15.5851 15.3749Z" fill="#A2A2A2"/>
<path d="M3.16925 5.04343H20.8616C21.2014 5.04343 21.4769 4.78173 21.4769 4.45889C21.4769 4.13604 21.2014 3.87434 20.8616 3.87434H3.16925C2.82937 3.87434 2.55386 4.13604 2.55386 4.45889C2.55386 4.78173 2.82937 5.04343 3.16925 5.04343Z" fill="#A2A2A2"/>
<path d="M5.78461 1.8284H18.2154C18.5553 1.8284 18.8308 1.56669 18.8308 1.24384C18.8308 0.920991 18.5553 0.659286 18.2154 0.659286H5.78461C5.44473 0.659286 5.16922 0.920991 5.16922 1.24384C5.16922 1.56669 5.44479 1.8284 5.78461 1.8284Z" fill="#A2A2A2"/>
</svg>
