<svg width="24" height="23" viewBox="0 0 24 23" fill="none" xmlns="http://www.w3.org/2000/svg">
<path d="M16.5805 12.7565L9.54923 8.53772C9.33202 8.40741 9.0615 8.40399 8.84105 8.52877C8.62064 8.65355 8.48438 8.88732 8.48438 9.14063V17.5781C8.48438 17.8314 8.62064 18.0652 8.84105 18.19C9.06108 18.3145 9.33159 18.3116 9.54923 18.181L16.5805 13.9623C16.7923 13.8352 16.9219 13.6064 16.9219 13.3594C16.9219 13.1124 16.7923 12.8836 16.5805 12.7565ZM9.89062 16.3363V10.3825L14.8521 13.3594L9.89062 16.3363Z" fill="white"/>
<path d="M23.2969 0H0.703125C0.314812 0 0 0.314812 0 0.703125V21.7969C0 22.1852 0.314812 22.5 0.703125 22.5H23.2969C23.6852 22.5 24 22.1852 24 21.7969C24 21.2414 24 0.912656 24 0.703125C24 0.318609 23.6851 0 23.2969 0ZM14.1094 4.21875L17.8594 1.40625H21.1734L17.3922 4.21875H14.1094ZM8.48438 4.21875L12.2344 1.40625H15.5156L11.7656 4.21875H8.48438ZM2.82656 4.21875L6.60783 1.40625H9.89062L6.14062 4.21875H2.82656ZM22.5938 2.10244V4.21875H19.7484L22.5938 2.10244ZM4.25156 1.40625L1.40625 3.52256V1.40625H4.25156ZM22.5938 21.0938H1.40625V5.625H22.5938V21.0938Z" fill="white"/>
</svg>
